#!OML:ASF G:\ViconDB\ViconDB\414\test\team2\shane.ASF
:FULLY-SPECIFIED
:DEGREES
274
root 0.881 16.8097 18.3736 -8.78177 3.89811 -7.07852
lowerback 7.70295 2.01053 5.80151
upperback 2.97179 3.13985 2.27594
thorax -1.05075 1.59263 -1.15964
lowerneck -13.1547 -2.55369 -4.95618
upperneck 18.8749 -4.37688 9.27593
head 8.34297 -1.50491 3.45749
rclavicle -1.32797e-014 -1.28216e-014
rhumerus -21.6438 15.0552 -95.007
rradius 30.9169
rwrist 34.0041
rhand -30.1102 -14.9901
rfingers 7.12502
rthumb -3.42389 -44.9423
lclavicle -1.32797e-014 -1.28216e-014
lhumerus -43.2655 -11.3581 86.8429
lradius 16.1727
lwrist -20.4991
lhand -37.4028 8.55616
lfingers 7.12502
lthumb -10.4632 38.2758
rfemur 19.4829 -19.6285 19.639
rtibia 12.4678
rfoot -20.2668 11.2028
rtoes -7.463
lfemur -15.3976 8.48292 -6.0411
ltibia 35.9827
lfoot -24.8463 -12.9771
ltoes -12.9718
275
root 0.904847 16.8069 18.567 -8.72265 3.67205 -7.27996
lowerback 7.65042 2.11815 6.17412
upperback 2.93834 3.30538 2.20505
thorax -1.0193 1.67765 -1.44964
lowerneck -13.2378 -2.57906 -4.96983
upperneck 18.9567 -4.47726 9.57805
head 8.40171 -1.51961 3.55291
rclavicle -4.15584e-015 3.57812e-015
rhumerus -21.0645 16.3483 -95.4493
rradius 31.6599
rwrist 33.0421
rhand -30.3059 -15.3637
rfingers 7.12502
rthumb -3.61286 -45.3128
lclavicle -4.15584e-015 3.57812e-015
lhumerus -44.462 -12.0081 86.6653
lradius 15.9347
lwrist -19.6452
lhand -37.1724 8.59623
lfingers 7.12502
lthumb -10.2409 38.3269
rfemur 21.4022 -19.0933 19.7556
rtibia 9.59536
rfoot -19.0162 10.8864
rtoes -8.33018
lfemur -15.9769 8.57031 -6.14739
ltibia 33.6665
lfoot -25.0264 -13.526
ltoes -12.8227
276
root 0.927255 16.8127 18.7584 -8.68534 3.46249 -7.40722
lowerback 7.61058 2.19696 6.34306
upperback 2.96265 3.41775 2.23223
thorax -0.955292 1.73666 -1.52051
lowerneck -13.4712 -2.54651 -4.91145
upperneck 19.1207 -4.44498 9.54972
head 8.49529 -1.49356 3.53943
rclavicle -4.55031e-015 -2.59414e-014
rhumerus -20.4317 17.6589 -95.6534
rradius 32.4367
rwrist 32.1394
rhand -30.2397 -15.2138
rfingers 7.12502
rthumb -3.54893 -45.164
lclavicle -4.55031e-015 -2.59414e-014
lhumerus -45.4211 -12.0443 86.299
lradius 15.5261
lwrist -19.339
lhand -36.7999 8.34525
lfingers 7.12502
lthumb -9.88162 38.0934
rfemur 23.8389 -18.5528 19.7891
rtibia 5.63396
rfoot -17.0268 10.7943
rtoes -8.89287
lfemur -16.5965 8.67063 -6.32053
ltibia 31.6655
lfoot -25.5214 -13.9331
ltoes -13.7536
277
root 0.952921 16.8007 18.9503 -8.53078 3.26979 -7.64048
lowerback 7.45861 2.29888 6.64935
upperback 2.93535 3.56253 2.22287
thorax -0.868408 1.81261 -1.70263
lowerneck -13.5628 -2.48412 -4.63632
upperneck 19.0613 -4.39796 9.4824
head 8.48142 -1.45653 3.47357
rclavicle -2.47518e-014 -2.56432e-014
rhumerus -19.8924 18.9686 -95.9038
rradius 33.2213
rwrist 31.0449
rhand -30.3883 -15.1233
rfingers 7.12502
rthumb -3.69247 -45.0711
lclavicle -2.47518e-014 -2.56432e-014
lhumerus -46.0539 -11.212 84.984
lradius 14.8081
lwrist -21.0977
lhand -36.5857 8.17525
lfingers 7.12502
lthumb -9.67491 37.9331
rfemur 26.8499 -18.0672 20.0596
rtibia 3.49861e-014
rfoot -14.2123 10.4535
rtoes -9.55502
lfemur -17.457 8.84323 -6.32978
ltibia 30.1963
lfoot -25.9045 -14.7062
ltoes -13.2762
278
root 0.973622 16.7748 19.1488 -8.43695 3.13738 -7.92993
lowerback 7.32398 2.4046 6.91316
upperback 2.87487 3.7134 2.28264
thorax -0.831078 1.88894 -1.7916
lowerneck -13.6071 -2.52655 -4.61376
upperneck 19.0664 -4.46352 9.49293
head 8.4965 -1.4833 3.46564
rclavicle 2.34939e-014 -1.22253e-014
rhumerus -19.4093 19.7477 -95.9979
rradius 33.8342
rwrist 30.6552
rhand -30.4299 -15.0141
rfingers 7.12502
rthumb -3.73258 -44.9612
lclavicle 2.34939e-014 -1.22253e-014
lhumerus -47.2278 -11.6014 84.863
lradius 14.6048
lwrist -20.7567
lhand -36.3629 8.05134
lfingers 7.12502
lthumb -9.46001 37.819
rfemur 27.4825 -17.6611 20.3639
rtibia -9.85972e-014
rfoot -14.5722 9.99705
rtoes -10.1247
lfemur -18.4356 9.99065 -6.42752
ltibia 29.2966
lfoot -26.9419 -15.8569
ltoes -13.6526
279
root 1.00512 16.7599 19.336 -8.35039 3.06574 -8.10701
lowerback 7.37164 2.39453 7.10608
upperback 2.77109 3.72362 2.2861
thorax -0.951663 1.88891 -1.901
lowerneck -13.49 -2.49853 -4.71259
upperneck 19.0001 -4.45101 9.73112
head 8.45955 -1.46531 3.56478
rclavicle -2.65471e-014 -1.82882e-014
rhumerus -19.1696 20.8638 -96.2869
rradius 34.667
rwrist 30.1182
rhand -30.4182 -15.0259
rfingers 7.12502
rthumb -3.72131 -44.9732
lclavicle -2.65471e-014 -1.82882e-014
lhumerus -48.2338 -11.2849 84.186
lradius 14.2344
lwrist -21.4769
lhand -36.0194 8.21001
lfingers 7.12502
lthumb -9.12855 37.9924
rfemur 28.0632 -17.2648 20.4659
rtibia -5.40694e-014
rfoot -14.7424 9.62606
rtoes -11.2379
lfemur -19.4442 11.555 -6.82751
ltibia 28.8013
lfoot -28.0436 -17.392
ltoes -13.0717
280
root 1.05008 16.7499 19.5363 -8.16179 2.55235 -8.37634
lowerback 7.10026 2.55327 7.6689
upperback 2.76828 3.94504 2.25682
thorax -0.742615 2.00914 -2.23982
lowerneck -13.5454 -2.48571 -4.45075
upperneck 18.8751 -4.45417 9.60751
head 8.41998 -1.46119 3.47484
rclavicle -5.85359e-014 -2.46493e-014
rhumerus -18.7005 21.694 -96.4166
rradius 35.3299
rwrist 29.4722
rhand -30.4416 -14.875
rfingers 7.12502
rthumb -3.74387 -44.8219
lclavicle -2.65471e-014 -1.82882e-014
lhumerus -48.2338 -11.2849 84.186
lradius 14.2344
lwrist -21.4769
lhand -36.0194 8.21001
lfingers 7.12502
lthumb -9.12855 37.9924
rfemur 28.5134 -16.4384 20.7464
rtibia -3.81667e-014
rfoot -14.9208 9.18559
rtoes -11.9913
lfemur -20.4041 13.5969 -7.10162
ltibia 28.7226
lfoot -28.9983 -18.9344
ltoes -12.5735
281
root 1.08034 16.7358 19.739 -7.97746 2.33027 -8.28866
lowerback 6.91164 2.64736 7.52655
upperback 2.68483 4.04628 2.20785
thorax -0.72215 2.05774 -2.21021
lowerneck -13.5723 -2.40248 -4.26031
upperneck 18.8829 -4.35793 9.49961
head 8.41354 -1.41178 3.41678
rclavicle -4.92924e-015 -1.66979e-014
rhumerus -18.4601 22.0884 -96.577
rradius 36.0525
rwrist 29.6052
rhand -30.3465 -14.6424
rfingers 7.12502
rthumb -3.65203 -44.5908
lclavicle -4.92924e-015 -1.66979e-014
lhumerus -50.5334 -12.2814 84.3104
lradius 14.0548
lwrist -20.7175
lhand -35.5315 8.36753
lfingers 7.12502
lthumb -8.65769 38.17
rfemur 29.0371 -15.8543 20.642
rtibia -6.99722e-014
rfoot -15.1093 8.81377
rtoes -13.3822
lfemur -21.2055 15.3301 -7.75577
ltibia 28.74
lfoot -29.2292 -20.3082
ltoes -13.0426
282
root 1.12424 16.7113 19.9427 -7.86367 1.60053 -8.6278
lowerback 6.8221 2.85037 8.09546
upperback 2.61054 4.34736 2.23764
thorax -0.679245 2.21016 -2.50575
lowerneck -13.5155 -2.37409 -4.08596
upperneck 18.8561 -4.33279 9.38851
head 8.38618 -1.40035 3.35175
rclavicle -4.0844e-015 -7.15625e-015
rhumerus -18.2667 22.5061 -96.7243
rradius 36.5709
rwrist 29.7703
rhand -30.3864 -14.4127
rfingers 7.12502
rthumb -3.69057 -44.3604
lclavicle -4.0844e-015 -7.15625e-015
lhumerus -51.5276 -12.3766 84.0561
lradius 13.8233
lwrist -20.6874
lhand -35.4704 8.34578
lfingers 7.12502
lthumb -8.59875 38.1507
rfemur 29.576 -14.829 21.0185
rtibia 5.725e-014
rfoot -15.1426 8.52742
rtoes -14.0296
lfemur -21.487 16.2583 -7.61003
ltibia 28.9193
lfoot -29.2016 -20.3148
ltoes -12.7155
283
root 1.16717 16.6866 20.1461 -7.74747 1.43903 -8.41147
lowerback 6.69991 2.91129 7.98457
upperback 2.54306 4.41027 2.08023
thorax -0.671395 2.24035 -2.60542
lowerneck -13.5702 -2.35484 -4.07423
upperneck 18.9146 -4.35652 9.5947
head 8.42275 -1.38744 3.41848
rclavicle -8.92357e-014 -7.35503e-015
rhumerus -18.0722 22.9507 -96.9551
rradius 37.0306
rwrist 29.7032
rhand -30.4334 -14.2515
rfingers 7.12502
rthumb -3.73604 -44.1985
lclavicle -4.0844e-015 -7.15625e-015
lhumerus -51.5276 -12.3766 84.0561
lradius 13.8233
lwrist -20.6874
lhand -35.4704 8.34578
lfingers 7.12502
lthumb -8.59875 38.1507
rfemur 30.2424 -14.2447 20.6671
rtibia 5.08889e-014
rfoot -15.1972 8.12516
rtoes -15.3937
lfemur -21.5313 16.5302 -8.16379
ltibia 29.1804
lfoot -29.2588 -20.2515
ltoes -13.4568
284
root 1.21326 16.6634 20.3511 -7.64733 1.18382 -8.46447
lowerback 6.60698 2.93995 8.17771
upperback 2.46622 4.45411 2.01208
thorax -0.674087 2.26135 -2.78083
lowerneck -13.7014 -2.31414 -3.95451
upperneck 19.0683 -4.33854 9.59878
head 8.49517 -1.36295 3.40425
rclavicle -6.43131e-014 -1.33186e-014
rhumerus -17.9732 23.1778 -97.2116
rradius 37.4933
rwrist 29.9239
rhand -30.4158 -13.9075
rfingers 7.12502
rthumb -3.71896 -43.8548
lclavicle -6.43131e-014 -1.33186e-014
lhumerus -53.1478 -11.8853 83.0493
lradius 13.31
lwrist -21.2718
lhand -35.0282 8.33609
lfingers 7.12502
lthumb -8.17198 38.1581
rfemur 30.8743 -13.5915 20.5691
rtibia 7.63333e-014
rfoot -14.9855 7.99847
rtoes -15.4285
lfemur -21.2417 16.2199 -8.31376
ltibia 29.5447
lfoot -29.2274 -19.527
ltoes -13.3252
285
root 1.25728 16.6314 20.5608 -7.58329 0.931467 -8.49151
lowerback 6.56037 2.99492 8.24789
upperback 2.32395 4.53446 1.95282
thorax -0.777173 2.29422 -2.88724
lowerneck -13.5703 -2.2675 -3.99051
upperneck 19.0991 -4.3114 9.79072
head 8.48468 -1.3363 3.48032
rclavicle -1.8223e-014 -1.92821e-014
rhumerus -18.0112 23.3517 -97.547
rradius 37.8484
rwrist 29.9154
rhand -30.4894 -13.8495
rfingers 7.12502
rthumb -3.79011 -43.7955
lclavicle -1.8223e-014 -1.92821e-014
lhumerus -53.9144 -11.4244 82.2818
lradius 12.9998
lwrist -22.1195
lhand -34.7064 8.35659
lfingers 7.12502
lthumb -7.86145 38.1904
rfemur 31.5554 -12.9884 20.5571
rtibia -5.725e-014
rfoot -14.9252 7.44245
rtoes -17.6933
lfemur -20.7488 15.4083 -8.29175
ltibia 29.9713
lfoot -28.2974 -18.7288
ltoes -13.9407
286
root 1.30527 16.6084 20.7774 -7.6308 0.41351 -8.37985
lowerback 6.49597 3.12065 8.24834
upperback 2.29131 4.69474 1.84414
thorax -0.748421 2.37483 -3.0044
lowerneck -13.6772 -2.21612 -3.87521
upperneck 19.3212 -4.2959 9.84933
head 8.57754 -1.30653 3.48699
rclavicle -6.33626e-016 -1.07344e-014
rhumerus -18.1888 23.4777 -97.8707
rradius 38.3505
rwrist 30.1396
rhand -30.4031 -13.6029
rfingers 7.12502
rthumb -3.70676 -43.5504
lclavicle -1.8223e-014 -1.92821e-014
lhumerus -53.9144 -11.4244 82.2818
lradius 12.9998
lwrist -22.1195
lhand -34.7064 8.35659
lfingers 7.12502
lthumb -7.86145 38.1904
rfemur 32.3362 -12.0756 20.358
rtibia -8.26944e-014
rfoot -14.6141 7.02319
rtoes -18.8314
lfemur -19.9734 14.8122 -8.38026
ltibia 30.4742
lfoot -27.6029 -18.1944
ltoes -13.7093
287
root 1.35303 16.6013 20.9992 -7.6085 0.0880841 -8.3717
lowerback 6.32488 3.2095 8.32874
upperback 2.20154 4.80402 1.7684
thorax -0.721004 2.42861 -3.12356
lowerneck -13.6492 -2.15344 -3.4529
upperneck 19.4359 -4.23844 9.49963
head 8.59055 -1.28136 3.30393
rclavicle 4.18069e-015 1.98785e-014
rhumerus -18.4111 23.3395 -98.1857
rradius 38.7481
rwrist 29.975
rhand -30.5117 -13.4188
rfingers 7.12502
rthumb -3.8116 -43.3644
lclavicle -1.8223e-014 -1.92821e-014
lhumerus -53.9144 -11.4244 82.2818
lradius 12.9998
lwrist -22.1195
lhand -34.7064 8.35659
lfingers 7.12502
lthumb -7.86145 38.1904
rfemur 33.0443 -11.3405 20.2048
rtibia 4.77083e-014
rfoot -14.0387 6.97704
rtoes -19.1923
lfemur -19.4133 14.2313 -8.41786
ltibia 31.0472
lfoot -26.4192 -18.6071
ltoes -13.195
